<mxfile host="app.diagrams.net" modified="2023-05-09T18:07:04.845Z" agent="Mozilla/5.0 (Windows NT 10.0; Win64; x64) AppleWebKit/537.36 (KHTML, like Gecko) Chrome/112.0.0.0 Safari/537.36" etag="hsesHZDa3KcGaQTwHuKY" version="21.2.9" type="device">
  <diagram name="Página-1" id="jpRd55cd0fuOrFXRpSFs">
    <mxGraphModel dx="1588" dy="1032" grid="1" gridSize="10" guides="1" tooltips="1" connect="1" arrows="1" fold="1" page="1" pageScale="1" pageWidth="827" pageHeight="1169" math="0" shadow="0">
      <root>
        <mxCell id="0" />
        <mxCell id="1" parent="0" />
        <mxCell id="GC1VzJvACckY4L8aaz52-151" style="edgeStyle=orthogonalEdgeStyle;rounded=0;orthogonalLoop=1;jettySize=auto;html=1;exitX=1;exitY=0.5;exitDx=0;exitDy=0;entryX=0;entryY=0.5;entryDx=0;entryDy=0;fontSize=24;strokeWidth=2;strokeColor=#FF230A;" parent="1" source="GC1VzJvACckY4L8aaz52-1" target="GC1VzJvACckY4L8aaz52-140" edge="1">
          <mxGeometry relative="1" as="geometry">
            <Array as="points">
              <mxPoint x="320" y="249" />
              <mxPoint x="320" y="179" />
              <mxPoint x="1020" y="179" />
              <mxPoint x="1020" y="249" />
            </Array>
          </mxGeometry>
        </mxCell>
        <mxCell id="M3Rmy12SJ6gLI9cSGrtA-7" style="edgeStyle=orthogonalEdgeStyle;rounded=0;orthogonalLoop=1;jettySize=auto;html=1;exitX=0;exitY=0.5;exitDx=0;exitDy=0;entryX=0;entryY=0.5;entryDx=0;entryDy=0;strokeWidth=2;strokeColor=#FF230A;" parent="1" source="GC1VzJvACckY4L8aaz52-1" target="GC1VzJvACckY4L8aaz52-5" edge="1">
          <mxGeometry relative="1" as="geometry">
            <Array as="points">
              <mxPoint x="60" y="249" />
              <mxPoint x="60" y="639" />
            </Array>
          </mxGeometry>
        </mxCell>
        <mxCell id="M3Rmy12SJ6gLI9cSGrtA-8" style="edgeStyle=orthogonalEdgeStyle;rounded=0;orthogonalLoop=1;jettySize=auto;html=1;exitX=0;exitY=0.5;exitDx=0;exitDy=0;entryX=0;entryY=0.5;entryDx=0;entryDy=0;strokeWidth=2;strokeColor=#FF230A;" parent="1" source="GC1VzJvACckY4L8aaz52-1" target="GC1VzJvACckY4L8aaz52-3" edge="1">
          <mxGeometry relative="1" as="geometry">
            <Array as="points">
              <mxPoint x="100" y="249" />
              <mxPoint x="100" y="530" />
              <mxPoint x="360" y="530" />
              <mxPoint x="360" y="639" />
            </Array>
          </mxGeometry>
        </mxCell>
        <mxCell id="GC1VzJvACckY4L8aaz52-1" value="ALUNO" style="rounded=1;whiteSpace=wrap;html=1;strokeWidth=2;strokeColor=#FF230A;" parent="1" vertex="1">
          <mxGeometry x="140" y="219" width="120" height="60" as="geometry" />
        </mxCell>
        <mxCell id="GC1VzJvACckY4L8aaz52-150" style="edgeStyle=orthogonalEdgeStyle;rounded=0;orthogonalLoop=1;jettySize=auto;html=1;exitX=1;exitY=0.5;exitDx=0;exitDy=0;entryX=0;entryY=0.5;entryDx=0;entryDy=0;strokeWidth=2;strokeColor=#66FFB3;" parent="1" source="GC1VzJvACckY4L8aaz52-2" target="GC1VzJvACckY4L8aaz52-140" edge="1">
          <mxGeometry relative="1" as="geometry" />
        </mxCell>
        <mxCell id="GC1VzJvACckY4L8aaz52-2" value="PROFESOR" style="rounded=1;whiteSpace=wrap;html=1;strokeWidth=2;strokeColor=#66FFB3;" parent="1" vertex="1">
          <mxGeometry x="800" y="609" width="120" height="60" as="geometry" />
        </mxCell>
        <mxCell id="GC1VzJvACckY4L8aaz52-3" value="CURSO" style="rounded=1;whiteSpace=wrap;html=1;strokeWidth=2;" parent="1" vertex="1">
          <mxGeometry x="480" y="609" width="120" height="60" as="geometry" />
        </mxCell>
        <mxCell id="M3Rmy12SJ6gLI9cSGrtA-6" style="edgeStyle=orthogonalEdgeStyle;rounded=0;orthogonalLoop=1;jettySize=auto;html=1;exitX=0;exitY=0.5;exitDx=0;exitDy=0;entryX=0;entryY=0.5;entryDx=0;entryDy=0;strokeWidth=2;strokeColor=#FF0080;" parent="1" source="GC1VzJvACckY4L8aaz52-4" target="GC1VzJvACckY4L8aaz52-3" edge="1">
          <mxGeometry relative="1" as="geometry">
            <Array as="points">
              <mxPoint x="410" y="299" />
              <mxPoint x="410" y="639" />
            </Array>
          </mxGeometry>
        </mxCell>
        <mxCell id="M3Rmy12SJ6gLI9cSGrtA-13" style="edgeStyle=orthogonalEdgeStyle;rounded=0;orthogonalLoop=1;jettySize=auto;html=1;exitX=0;exitY=0.5;exitDx=0;exitDy=0;entryX=0.5;entryY=0;entryDx=0;entryDy=0;strokeWidth=2;strokeColor=#FF0080;" parent="1" source="GC1VzJvACckY4L8aaz52-4" target="GC1VzJvACckY4L8aaz52-2" edge="1">
          <mxGeometry relative="1" as="geometry">
            <Array as="points">
              <mxPoint x="410" y="299" />
              <mxPoint x="410" y="500" />
              <mxPoint x="860" y="500" />
            </Array>
          </mxGeometry>
        </mxCell>
        <mxCell id="GC1VzJvACckY4L8aaz52-4" value="MATÉRIA" style="rounded=1;whiteSpace=wrap;html=1;strokeWidth=2;strokeColor=#FF0080;" parent="1" vertex="1">
          <mxGeometry x="480" y="269" width="120" height="60" as="geometry" />
        </mxCell>
        <mxCell id="M3Rmy12SJ6gLI9cSGrtA-9" style="edgeStyle=orthogonalEdgeStyle;rounded=0;orthogonalLoop=1;jettySize=auto;html=1;exitX=1;exitY=0.5;exitDx=0;exitDy=0;entryX=0;entryY=0.5;entryDx=0;entryDy=0;strokeWidth=2;strokeColor=#00FBFF;" parent="1" source="GC1VzJvACckY4L8aaz52-5" target="GC1VzJvACckY4L8aaz52-2" edge="1">
          <mxGeometry relative="1" as="geometry">
            <Array as="points">
              <mxPoint x="290" y="639" />
              <mxPoint x="290" y="950" />
              <mxPoint x="730" y="950" />
              <mxPoint x="730" y="639" />
            </Array>
          </mxGeometry>
        </mxCell>
        <mxCell id="GC1VzJvACckY4L8aaz52-5" value="TURMA" style="rounded=1;whiteSpace=wrap;html=1;strokeWidth=2;strokeColor=#00FBFF;" parent="1" vertex="1">
          <mxGeometry x="140" y="609" width="120" height="60" as="geometry" />
        </mxCell>
        <mxCell id="M3Rmy12SJ6gLI9cSGrtA-4" style="edgeStyle=orthogonalEdgeStyle;rounded=0;orthogonalLoop=1;jettySize=auto;html=1;exitX=0;exitY=0.5;exitDx=0;exitDy=0;entryX=1;entryY=0.5;entryDx=0;entryDy=0;strokeWidth=2;strokeColor=#32FF24;" parent="1" source="GC1VzJvACckY4L8aaz52-6" target="GC1VzJvACckY4L8aaz52-1" edge="1">
          <mxGeometry relative="1" as="geometry" />
        </mxCell>
        <mxCell id="M3Rmy12SJ6gLI9cSGrtA-5" style="edgeStyle=orthogonalEdgeStyle;rounded=0;orthogonalLoop=1;jettySize=auto;html=1;exitX=0;exitY=0.5;exitDx=0;exitDy=0;entryX=1;entryY=0.5;entryDx=0;entryDy=0;strokeWidth=2;strokeColor=#32FF24;" parent="1" source="GC1VzJvACckY4L8aaz52-6" target="GC1VzJvACckY4L8aaz52-4" edge="1">
          <mxGeometry relative="1" as="geometry">
            <Array as="points">
              <mxPoint x="730" y="249" />
              <mxPoint x="730" y="299" />
            </Array>
          </mxGeometry>
        </mxCell>
        <mxCell id="GC1VzJvACckY4L8aaz52-6" value="NOTAS" style="rounded=1;whiteSpace=wrap;html=1;strokeWidth=2;strokeColor=#32FF24;" parent="1" vertex="1">
          <mxGeometry x="800" y="219" width="120" height="60" as="geometry" />
        </mxCell>
        <mxCell id="GC1VzJvACckY4L8aaz52-28" style="edgeStyle=orthogonalEdgeStyle;rounded=0;orthogonalLoop=1;jettySize=auto;html=1;exitX=0;exitY=0.5;exitDx=0;exitDy=0;entryX=0;entryY=1;entryDx=0;entryDy=0;" parent="1" source="GC1VzJvACckY4L8aaz52-7" target="GC1VzJvACckY4L8aaz52-1" edge="1">
          <mxGeometry relative="1" as="geometry" />
        </mxCell>
        <mxCell id="GC1VzJvACckY4L8aaz52-7" value="" style="ellipse;whiteSpace=wrap;html=1;aspect=fixed;" parent="1" vertex="1">
          <mxGeometry x="160" y="289" width="10" height="10" as="geometry" />
        </mxCell>
        <mxCell id="GC1VzJvACckY4L8aaz52-8" value="ID" style="text;html=1;align=left;verticalAlign=middle;resizable=0;points=[];autosize=1;strokeColor=none;fillColor=none;fontSize=10;" parent="1" vertex="1">
          <mxGeometry x="175" y="279" width="30" height="30" as="geometry" />
        </mxCell>
        <mxCell id="GC1VzJvACckY4L8aaz52-9" value="nome" style="text;html=1;align=left;verticalAlign=middle;resizable=0;points=[];autosize=1;strokeColor=none;fillColor=none;fontSize=10;" parent="1" vertex="1">
          <mxGeometry x="175" y="299" width="50" height="30" as="geometry" />
        </mxCell>
        <mxCell id="GC1VzJvACckY4L8aaz52-10" value="RA" style="text;html=1;align=left;verticalAlign=middle;resizable=0;points=[];autosize=1;strokeColor=none;fillColor=none;fontSize=10;" parent="1" vertex="1">
          <mxGeometry x="175" y="319" width="40" height="30" as="geometry" />
        </mxCell>
        <mxCell id="GC1VzJvACckY4L8aaz52-11" value="sexo" style="text;html=1;align=left;verticalAlign=middle;resizable=0;points=[];autosize=1;strokeColor=none;fillColor=none;fontSize=10;" parent="1" vertex="1">
          <mxGeometry x="175" y="339" width="40" height="30" as="geometry" />
        </mxCell>
        <mxCell id="GC1VzJvACckY4L8aaz52-12" value="CPF" style="text;html=1;align=left;verticalAlign=middle;resizable=0;points=[];autosize=1;strokeColor=none;fillColor=none;fontSize=10;" parent="1" vertex="1">
          <mxGeometry x="175" y="359" width="40" height="30" as="geometry" />
        </mxCell>
        <mxCell id="GC1VzJvACckY4L8aaz52-13" value="CURSO" style="text;html=1;align=left;verticalAlign=middle;resizable=0;points=[];autosize=1;strokeColor=none;fillColor=none;fontSize=10;" parent="1" vertex="1">
          <mxGeometry x="175" y="379" width="60" height="30" as="geometry" />
        </mxCell>
        <mxCell id="GC1VzJvACckY4L8aaz52-14" value="TURMA" style="text;html=1;align=left;verticalAlign=middle;resizable=0;points=[];autosize=1;strokeColor=none;fillColor=none;fontSize=10;" parent="1" vertex="1">
          <mxGeometry x="175" y="399" width="60" height="30" as="geometry" />
        </mxCell>
        <mxCell id="GC1VzJvACckY4L8aaz52-16" value="mensalidade" style="text;html=1;align=left;verticalAlign=middle;resizable=0;points=[];autosize=1;strokeColor=none;fillColor=none;fontSize=10;" parent="1" vertex="1">
          <mxGeometry x="175" y="419" width="80" height="30" as="geometry" />
        </mxCell>
        <mxCell id="GC1VzJvACckY4L8aaz52-17" value="USUARIO" style="text;html=1;align=left;verticalAlign=middle;resizable=0;points=[];autosize=1;strokeColor=none;fillColor=none;fontSize=10;" parent="1" vertex="1">
          <mxGeometry x="175" y="439" width="70" height="30" as="geometry" />
        </mxCell>
        <mxCell id="GC1VzJvACckY4L8aaz52-29" style="edgeStyle=orthogonalEdgeStyle;rounded=0;orthogonalLoop=1;jettySize=auto;html=1;exitX=0;exitY=0.5;exitDx=0;exitDy=0;" parent="1" source="GC1VzJvACckY4L8aaz52-18" edge="1">
          <mxGeometry relative="1" as="geometry">
            <mxPoint x="140" y="279" as="targetPoint" />
          </mxGeometry>
        </mxCell>
        <mxCell id="GC1VzJvACckY4L8aaz52-18" value="" style="ellipse;whiteSpace=wrap;html=1;aspect=fixed;" parent="1" vertex="1">
          <mxGeometry x="160" y="309" width="10" height="10" as="geometry" />
        </mxCell>
        <mxCell id="GC1VzJvACckY4L8aaz52-30" style="edgeStyle=orthogonalEdgeStyle;rounded=0;orthogonalLoop=1;jettySize=auto;html=1;exitX=0;exitY=0.5;exitDx=0;exitDy=0;" parent="1" source="GC1VzJvACckY4L8aaz52-19" edge="1">
          <mxGeometry relative="1" as="geometry">
            <mxPoint x="140" y="279" as="targetPoint" />
          </mxGeometry>
        </mxCell>
        <mxCell id="GC1VzJvACckY4L8aaz52-19" value="" style="ellipse;whiteSpace=wrap;html=1;aspect=fixed;" parent="1" vertex="1">
          <mxGeometry x="160" y="329" width="10" height="10" as="geometry" />
        </mxCell>
        <mxCell id="GC1VzJvACckY4L8aaz52-31" style="edgeStyle=orthogonalEdgeStyle;rounded=0;orthogonalLoop=1;jettySize=auto;html=1;exitX=0;exitY=0.5;exitDx=0;exitDy=0;" parent="1" source="GC1VzJvACckY4L8aaz52-20" edge="1">
          <mxGeometry relative="1" as="geometry">
            <mxPoint x="140" y="279" as="targetPoint" />
          </mxGeometry>
        </mxCell>
        <mxCell id="GC1VzJvACckY4L8aaz52-20" value="" style="ellipse;whiteSpace=wrap;html=1;aspect=fixed;" parent="1" vertex="1">
          <mxGeometry x="160" y="349" width="10" height="10" as="geometry" />
        </mxCell>
        <mxCell id="GC1VzJvACckY4L8aaz52-32" style="edgeStyle=orthogonalEdgeStyle;rounded=0;orthogonalLoop=1;jettySize=auto;html=1;exitX=0;exitY=0.5;exitDx=0;exitDy=0;" parent="1" source="GC1VzJvACckY4L8aaz52-21" edge="1">
          <mxGeometry relative="1" as="geometry">
            <mxPoint x="140" y="279" as="targetPoint" />
          </mxGeometry>
        </mxCell>
        <mxCell id="GC1VzJvACckY4L8aaz52-21" value="" style="ellipse;whiteSpace=wrap;html=1;aspect=fixed;" parent="1" vertex="1">
          <mxGeometry x="160" y="369" width="10" height="10" as="geometry" />
        </mxCell>
        <mxCell id="GC1VzJvACckY4L8aaz52-33" style="edgeStyle=orthogonalEdgeStyle;rounded=0;orthogonalLoop=1;jettySize=auto;html=1;exitX=0;exitY=0.5;exitDx=0;exitDy=0;" parent="1" source="GC1VzJvACckY4L8aaz52-22" edge="1">
          <mxGeometry relative="1" as="geometry">
            <mxPoint x="140" y="279" as="targetPoint" />
          </mxGeometry>
        </mxCell>
        <mxCell id="GC1VzJvACckY4L8aaz52-22" value="" style="ellipse;whiteSpace=wrap;html=1;aspect=fixed;fillColor=#CCCCCC;" parent="1" vertex="1">
          <mxGeometry x="160" y="389" width="10" height="10" as="geometry" />
        </mxCell>
        <mxCell id="GC1VzJvACckY4L8aaz52-34" style="edgeStyle=orthogonalEdgeStyle;rounded=0;orthogonalLoop=1;jettySize=auto;html=1;exitX=0;exitY=0.5;exitDx=0;exitDy=0;" parent="1" source="GC1VzJvACckY4L8aaz52-23" edge="1">
          <mxGeometry relative="1" as="geometry">
            <mxPoint x="140" y="279" as="targetPoint" />
          </mxGeometry>
        </mxCell>
        <mxCell id="GC1VzJvACckY4L8aaz52-23" value="" style="ellipse;whiteSpace=wrap;html=1;aspect=fixed;" parent="1" vertex="1">
          <mxGeometry x="160" y="409" width="10" height="10" as="geometry" />
        </mxCell>
        <mxCell id="GC1VzJvACckY4L8aaz52-35" style="edgeStyle=orthogonalEdgeStyle;rounded=0;orthogonalLoop=1;jettySize=auto;html=1;exitX=0;exitY=0.5;exitDx=0;exitDy=0;" parent="1" source="GC1VzJvACckY4L8aaz52-24" edge="1">
          <mxGeometry relative="1" as="geometry">
            <mxPoint x="140" y="279" as="targetPoint" />
          </mxGeometry>
        </mxCell>
        <mxCell id="GC1VzJvACckY4L8aaz52-24" value="" style="ellipse;whiteSpace=wrap;html=1;aspect=fixed;" parent="1" vertex="1">
          <mxGeometry x="160" y="429" width="10" height="10" as="geometry" />
        </mxCell>
        <mxCell id="GC1VzJvACckY4L8aaz52-36" style="edgeStyle=orthogonalEdgeStyle;rounded=0;orthogonalLoop=1;jettySize=auto;html=1;exitX=0;exitY=0.5;exitDx=0;exitDy=0;" parent="1" source="GC1VzJvACckY4L8aaz52-25" edge="1">
          <mxGeometry relative="1" as="geometry">
            <mxPoint x="140" y="279" as="targetPoint" />
          </mxGeometry>
        </mxCell>
        <mxCell id="GC1VzJvACckY4L8aaz52-25" value="" style="ellipse;whiteSpace=wrap;html=1;aspect=fixed;" parent="1" vertex="1">
          <mxGeometry x="160" y="449" width="10" height="10" as="geometry" />
        </mxCell>
        <mxCell id="GC1VzJvACckY4L8aaz52-50" style="edgeStyle=orthogonalEdgeStyle;rounded=0;orthogonalLoop=1;jettySize=auto;html=1;exitX=0;exitY=0.5;exitDx=0;exitDy=0;entryX=0;entryY=1;entryDx=0;entryDy=0;" parent="1" source="GC1VzJvACckY4L8aaz52-38" target="GC1VzJvACckY4L8aaz52-4" edge="1">
          <mxGeometry relative="1" as="geometry" />
        </mxCell>
        <mxCell id="GC1VzJvACckY4L8aaz52-38" value="" style="ellipse;whiteSpace=wrap;html=1;aspect=fixed;" parent="1" vertex="1">
          <mxGeometry x="500" y="339" width="10" height="10" as="geometry" />
        </mxCell>
        <mxCell id="GC1VzJvACckY4L8aaz52-39" value="ID" style="text;html=1;align=left;verticalAlign=middle;resizable=0;points=[];autosize=1;strokeColor=none;fillColor=none;fontSize=10;" parent="1" vertex="1">
          <mxGeometry x="515" y="329" width="30" height="30" as="geometry" />
        </mxCell>
        <mxCell id="GC1VzJvACckY4L8aaz52-40" value="nome" style="text;html=1;align=left;verticalAlign=middle;resizable=0;points=[];autosize=1;strokeColor=none;fillColor=none;fontSize=10;" parent="1" vertex="1">
          <mxGeometry x="515" y="349" width="50" height="30" as="geometry" />
        </mxCell>
        <mxCell id="GC1VzJvACckY4L8aaz52-41" value="CURSO" style="text;html=1;align=left;verticalAlign=middle;resizable=0;points=[];autosize=1;strokeColor=none;fillColor=none;fontSize=10;" parent="1" vertex="1">
          <mxGeometry x="515" y="369" width="60" height="30" as="geometry" />
        </mxCell>
        <mxCell id="GC1VzJvACckY4L8aaz52-42" value="descrição" style="text;html=1;align=left;verticalAlign=middle;resizable=0;points=[];autosize=1;strokeColor=none;fillColor=none;fontSize=10;" parent="1" vertex="1">
          <mxGeometry x="515" y="389" width="70" height="30" as="geometry" />
        </mxCell>
        <mxCell id="GC1VzJvACckY4L8aaz52-43" value="carga horaria" style="text;html=1;align=left;verticalAlign=middle;resizable=0;points=[];autosize=1;strokeColor=none;fillColor=none;fontSize=10;" parent="1" vertex="1">
          <mxGeometry x="515" y="409" width="80" height="30" as="geometry" />
        </mxCell>
        <mxCell id="GC1VzJvACckY4L8aaz52-44" value="PROFESSOR" style="text;html=1;align=left;verticalAlign=middle;resizable=0;points=[];autosize=1;strokeColor=none;fillColor=none;fontSize=10;" parent="1" vertex="1">
          <mxGeometry x="515" y="429" width="90" height="30" as="geometry" />
        </mxCell>
        <mxCell id="GC1VzJvACckY4L8aaz52-51" style="edgeStyle=orthogonalEdgeStyle;rounded=0;orthogonalLoop=1;jettySize=auto;html=1;exitX=0;exitY=0.5;exitDx=0;exitDy=0;" parent="1" source="GC1VzJvACckY4L8aaz52-45" edge="1">
          <mxGeometry relative="1" as="geometry">
            <mxPoint x="480" y="329" as="targetPoint" />
          </mxGeometry>
        </mxCell>
        <mxCell id="GC1VzJvACckY4L8aaz52-45" value="" style="ellipse;whiteSpace=wrap;html=1;aspect=fixed;" parent="1" vertex="1">
          <mxGeometry x="500" y="359" width="10" height="10" as="geometry" />
        </mxCell>
        <mxCell id="GC1VzJvACckY4L8aaz52-52" style="edgeStyle=orthogonalEdgeStyle;rounded=0;orthogonalLoop=1;jettySize=auto;html=1;exitX=0;exitY=0.5;exitDx=0;exitDy=0;" parent="1" source="GC1VzJvACckY4L8aaz52-46" edge="1">
          <mxGeometry relative="1" as="geometry">
            <mxPoint x="480" y="329" as="targetPoint" />
          </mxGeometry>
        </mxCell>
        <mxCell id="GC1VzJvACckY4L8aaz52-46" value="" style="ellipse;whiteSpace=wrap;html=1;aspect=fixed;" parent="1" vertex="1">
          <mxGeometry x="500" y="379" width="10" height="10" as="geometry" />
        </mxCell>
        <mxCell id="GC1VzJvACckY4L8aaz52-53" style="edgeStyle=orthogonalEdgeStyle;rounded=0;orthogonalLoop=1;jettySize=auto;html=1;exitX=0;exitY=0.5;exitDx=0;exitDy=0;" parent="1" source="GC1VzJvACckY4L8aaz52-47" edge="1">
          <mxGeometry relative="1" as="geometry">
            <mxPoint x="480" y="329" as="targetPoint" />
          </mxGeometry>
        </mxCell>
        <mxCell id="GC1VzJvACckY4L8aaz52-47" value="" style="ellipse;whiteSpace=wrap;html=1;aspect=fixed;" parent="1" vertex="1">
          <mxGeometry x="500" y="399" width="10" height="10" as="geometry" />
        </mxCell>
        <mxCell id="GC1VzJvACckY4L8aaz52-54" style="edgeStyle=orthogonalEdgeStyle;rounded=0;orthogonalLoop=1;jettySize=auto;html=1;exitX=0;exitY=0.5;exitDx=0;exitDy=0;" parent="1" source="GC1VzJvACckY4L8aaz52-48" edge="1">
          <mxGeometry relative="1" as="geometry">
            <mxPoint x="480" y="329" as="targetPoint" />
          </mxGeometry>
        </mxCell>
        <mxCell id="GC1VzJvACckY4L8aaz52-48" value="" style="ellipse;whiteSpace=wrap;html=1;aspect=fixed;" parent="1" vertex="1">
          <mxGeometry x="500" y="419" width="10" height="10" as="geometry" />
        </mxCell>
        <mxCell id="GC1VzJvACckY4L8aaz52-55" style="edgeStyle=orthogonalEdgeStyle;rounded=0;orthogonalLoop=1;jettySize=auto;html=1;exitX=0;exitY=0.5;exitDx=0;exitDy=0;" parent="1" source="GC1VzJvACckY4L8aaz52-49" edge="1">
          <mxGeometry relative="1" as="geometry">
            <mxPoint x="480" y="329" as="targetPoint" />
          </mxGeometry>
        </mxCell>
        <mxCell id="GC1VzJvACckY4L8aaz52-49" value="" style="ellipse;whiteSpace=wrap;html=1;aspect=fixed;" parent="1" vertex="1">
          <mxGeometry x="500" y="439" width="10" height="10" as="geometry" />
        </mxCell>
        <mxCell id="GC1VzJvACckY4L8aaz52-67" style="edgeStyle=orthogonalEdgeStyle;rounded=0;orthogonalLoop=1;jettySize=auto;html=1;exitX=0;exitY=0.5;exitDx=0;exitDy=0;entryX=0;entryY=1;entryDx=0;entryDy=0;" parent="1" source="GC1VzJvACckY4L8aaz52-56" target="GC1VzJvACckY4L8aaz52-5" edge="1">
          <mxGeometry relative="1" as="geometry" />
        </mxCell>
        <mxCell id="GC1VzJvACckY4L8aaz52-56" value="" style="ellipse;whiteSpace=wrap;html=1;aspect=fixed;" parent="1" vertex="1">
          <mxGeometry x="160" y="679" width="10" height="10" as="geometry" />
        </mxCell>
        <mxCell id="GC1VzJvACckY4L8aaz52-57" value="ID" style="text;html=1;align=left;verticalAlign=middle;resizable=0;points=[];autosize=1;strokeColor=none;fillColor=none;fontSize=10;" parent="1" vertex="1">
          <mxGeometry x="175" y="669" width="30" height="30" as="geometry" />
        </mxCell>
        <mxCell id="GC1VzJvACckY4L8aaz52-59" value="nome" style="text;html=1;align=left;verticalAlign=middle;resizable=0;points=[];autosize=1;strokeColor=none;fillColor=none;fontSize=10;" parent="1" vertex="1">
          <mxGeometry x="175" y="689" width="50" height="30" as="geometry" />
        </mxCell>
        <mxCell id="GC1VzJvACckY4L8aaz52-68" style="edgeStyle=orthogonalEdgeStyle;rounded=0;orthogonalLoop=1;jettySize=auto;html=1;exitX=0;exitY=0.5;exitDx=0;exitDy=0;" parent="1" source="GC1VzJvACckY4L8aaz52-60" edge="1">
          <mxGeometry relative="1" as="geometry">
            <mxPoint x="140" y="669" as="targetPoint" />
          </mxGeometry>
        </mxCell>
        <mxCell id="GC1VzJvACckY4L8aaz52-60" value="" style="ellipse;whiteSpace=wrap;html=1;aspect=fixed;" parent="1" vertex="1">
          <mxGeometry x="160" y="699" width="10" height="10" as="geometry" />
        </mxCell>
        <mxCell id="GC1VzJvACckY4L8aaz52-61" value="reitor (PROFESSOR)" style="text;html=1;align=left;verticalAlign=middle;resizable=0;points=[];autosize=1;strokeColor=none;fillColor=none;fontSize=10;" parent="1" vertex="1">
          <mxGeometry x="175" y="709" width="120" height="30" as="geometry" />
        </mxCell>
        <mxCell id="GC1VzJvACckY4L8aaz52-62" value="ano formação" style="text;html=1;align=left;verticalAlign=middle;resizable=0;points=[];autosize=1;strokeColor=none;fillColor=none;fontSize=10;" parent="1" vertex="1">
          <mxGeometry x="175" y="729" width="80" height="30" as="geometry" />
        </mxCell>
        <mxCell id="GC1VzJvACckY4L8aaz52-63" value="ano inicio" style="text;html=1;align=left;verticalAlign=middle;resizable=0;points=[];autosize=1;strokeColor=none;fillColor=none;fontSize=10;" parent="1" vertex="1">
          <mxGeometry x="175" y="749" width="70" height="30" as="geometry" />
        </mxCell>
        <mxCell id="GC1VzJvACckY4L8aaz52-69" style="edgeStyle=orthogonalEdgeStyle;rounded=0;orthogonalLoop=1;jettySize=auto;html=1;exitX=0;exitY=0.5;exitDx=0;exitDy=0;" parent="1" source="GC1VzJvACckY4L8aaz52-64" edge="1">
          <mxGeometry relative="1" as="geometry">
            <mxPoint x="140" y="669" as="targetPoint" />
          </mxGeometry>
        </mxCell>
        <mxCell id="GC1VzJvACckY4L8aaz52-64" value="" style="ellipse;whiteSpace=wrap;html=1;aspect=fixed;" parent="1" vertex="1">
          <mxGeometry x="160" y="719" width="10" height="10" as="geometry" />
        </mxCell>
        <mxCell id="GC1VzJvACckY4L8aaz52-70" style="edgeStyle=orthogonalEdgeStyle;rounded=0;orthogonalLoop=1;jettySize=auto;html=1;exitX=0;exitY=0.5;exitDx=0;exitDy=0;" parent="1" source="GC1VzJvACckY4L8aaz52-65" edge="1">
          <mxGeometry relative="1" as="geometry">
            <mxPoint x="140" y="669" as="targetPoint" />
          </mxGeometry>
        </mxCell>
        <mxCell id="GC1VzJvACckY4L8aaz52-65" value="" style="ellipse;whiteSpace=wrap;html=1;aspect=fixed;" parent="1" vertex="1">
          <mxGeometry x="160" y="739" width="10" height="10" as="geometry" />
        </mxCell>
        <mxCell id="GC1VzJvACckY4L8aaz52-71" style="edgeStyle=orthogonalEdgeStyle;rounded=0;orthogonalLoop=1;jettySize=auto;html=1;exitX=0;exitY=0.5;exitDx=0;exitDy=0;" parent="1" source="GC1VzJvACckY4L8aaz52-66" edge="1">
          <mxGeometry relative="1" as="geometry">
            <mxPoint x="140" y="669" as="targetPoint" />
          </mxGeometry>
        </mxCell>
        <mxCell id="GC1VzJvACckY4L8aaz52-66" value="" style="ellipse;whiteSpace=wrap;html=1;aspect=fixed;" parent="1" vertex="1">
          <mxGeometry x="160" y="759" width="10" height="10" as="geometry" />
        </mxCell>
        <mxCell id="GC1VzJvACckY4L8aaz52-85" style="edgeStyle=orthogonalEdgeStyle;rounded=0;orthogonalLoop=1;jettySize=auto;html=1;exitX=0;exitY=0.5;exitDx=0;exitDy=0;entryX=0;entryY=1;entryDx=0;entryDy=0;" parent="1" source="GC1VzJvACckY4L8aaz52-72" target="GC1VzJvACckY4L8aaz52-3" edge="1">
          <mxGeometry relative="1" as="geometry" />
        </mxCell>
        <mxCell id="GC1VzJvACckY4L8aaz52-72" value="" style="ellipse;whiteSpace=wrap;html=1;aspect=fixed;" parent="1" vertex="1">
          <mxGeometry x="500" y="679" width="10" height="10" as="geometry" />
        </mxCell>
        <mxCell id="GC1VzJvACckY4L8aaz52-73" value="ID" style="text;html=1;align=left;verticalAlign=middle;resizable=0;points=[];autosize=1;strokeColor=none;fillColor=none;fontSize=10;" parent="1" vertex="1">
          <mxGeometry x="515" y="669" width="30" height="30" as="geometry" />
        </mxCell>
        <mxCell id="GC1VzJvACckY4L8aaz52-74" value="nome" style="text;html=1;align=left;verticalAlign=middle;resizable=0;points=[];autosize=1;strokeColor=none;fillColor=none;fontSize=10;" parent="1" vertex="1">
          <mxGeometry x="515" y="689" width="50" height="30" as="geometry" />
        </mxCell>
        <mxCell id="GC1VzJvACckY4L8aaz52-75" value="categoria" style="text;html=1;align=left;verticalAlign=middle;resizable=0;points=[];autosize=1;strokeColor=none;fillColor=none;fontSize=10;" parent="1" vertex="1">
          <mxGeometry x="515" y="709" width="60" height="30" as="geometry" />
        </mxCell>
        <mxCell id="GC1VzJvACckY4L8aaz52-76" value="periodo" style="text;html=1;align=left;verticalAlign=middle;resizable=0;points=[];autosize=1;strokeColor=none;fillColor=none;fontSize=10;" parent="1" vertex="1">
          <mxGeometry x="515" y="729" width="60" height="30" as="geometry" />
        </mxCell>
        <mxCell id="GC1VzJvACckY4L8aaz52-77" value="duracao" style="text;html=1;align=left;verticalAlign=middle;resizable=0;points=[];autosize=1;strokeColor=none;fillColor=none;fontSize=10;" parent="1" vertex="1">
          <mxGeometry x="515" y="749" width="60" height="30" as="geometry" />
        </mxCell>
        <mxCell id="GC1VzJvACckY4L8aaz52-78" value="descricao" style="text;html=1;align=left;verticalAlign=middle;resizable=0;points=[];autosize=1;strokeColor=none;fillColor=none;fontSize=10;" parent="1" vertex="1">
          <mxGeometry x="515" y="769" width="70" height="30" as="geometry" />
        </mxCell>
        <mxCell id="GC1VzJvACckY4L8aaz52-86" style="edgeStyle=orthogonalEdgeStyle;rounded=0;orthogonalLoop=1;jettySize=auto;html=1;exitX=0;exitY=0.5;exitDx=0;exitDy=0;" parent="1" source="GC1VzJvACckY4L8aaz52-80" edge="1">
          <mxGeometry relative="1" as="geometry">
            <mxPoint x="480" y="669" as="targetPoint" />
          </mxGeometry>
        </mxCell>
        <mxCell id="GC1VzJvACckY4L8aaz52-80" value="" style="ellipse;whiteSpace=wrap;html=1;aspect=fixed;" parent="1" vertex="1">
          <mxGeometry x="500" y="699" width="10" height="10" as="geometry" />
        </mxCell>
        <mxCell id="GC1VzJvACckY4L8aaz52-87" style="edgeStyle=orthogonalEdgeStyle;rounded=0;orthogonalLoop=1;jettySize=auto;html=1;exitX=0;exitY=0.5;exitDx=0;exitDy=0;" parent="1" source="GC1VzJvACckY4L8aaz52-81" edge="1">
          <mxGeometry relative="1" as="geometry">
            <mxPoint x="480" y="669" as="targetPoint" />
          </mxGeometry>
        </mxCell>
        <mxCell id="GC1VzJvACckY4L8aaz52-81" value="" style="ellipse;whiteSpace=wrap;html=1;aspect=fixed;" parent="1" vertex="1">
          <mxGeometry x="500" y="719" width="10" height="10" as="geometry" />
        </mxCell>
        <mxCell id="GC1VzJvACckY4L8aaz52-88" style="edgeStyle=orthogonalEdgeStyle;rounded=0;orthogonalLoop=1;jettySize=auto;html=1;exitX=0;exitY=0.5;exitDx=0;exitDy=0;" parent="1" source="GC1VzJvACckY4L8aaz52-82" edge="1">
          <mxGeometry relative="1" as="geometry">
            <mxPoint x="480" y="669" as="targetPoint" />
          </mxGeometry>
        </mxCell>
        <mxCell id="GC1VzJvACckY4L8aaz52-82" value="" style="ellipse;whiteSpace=wrap;html=1;aspect=fixed;" parent="1" vertex="1">
          <mxGeometry x="500" y="739" width="10" height="10" as="geometry" />
        </mxCell>
        <mxCell id="GC1VzJvACckY4L8aaz52-89" style="edgeStyle=orthogonalEdgeStyle;rounded=0;orthogonalLoop=1;jettySize=auto;html=1;exitX=0;exitY=0.5;exitDx=0;exitDy=0;" parent="1" source="GC1VzJvACckY4L8aaz52-83" edge="1">
          <mxGeometry relative="1" as="geometry">
            <mxPoint x="480" y="669" as="targetPoint" />
          </mxGeometry>
        </mxCell>
        <mxCell id="GC1VzJvACckY4L8aaz52-83" value="" style="ellipse;whiteSpace=wrap;html=1;aspect=fixed;" parent="1" vertex="1">
          <mxGeometry x="500" y="759" width="10" height="10" as="geometry" />
        </mxCell>
        <mxCell id="GC1VzJvACckY4L8aaz52-90" style="edgeStyle=orthogonalEdgeStyle;rounded=0;orthogonalLoop=1;jettySize=auto;html=1;exitX=0;exitY=0.5;exitDx=0;exitDy=0;" parent="1" source="GC1VzJvACckY4L8aaz52-84" edge="1">
          <mxGeometry relative="1" as="geometry">
            <mxPoint x="480" y="669" as="targetPoint" />
          </mxGeometry>
        </mxCell>
        <mxCell id="GC1VzJvACckY4L8aaz52-84" value="" style="ellipse;whiteSpace=wrap;html=1;aspect=fixed;" parent="1" vertex="1">
          <mxGeometry x="500" y="779" width="10" height="10" as="geometry" />
        </mxCell>
        <mxCell id="GC1VzJvACckY4L8aaz52-108" style="edgeStyle=orthogonalEdgeStyle;rounded=0;orthogonalLoop=1;jettySize=auto;html=1;exitX=0;exitY=0.5;exitDx=0;exitDy=0;entryX=0;entryY=1;entryDx=0;entryDy=0;" parent="1" source="GC1VzJvACckY4L8aaz52-92" target="GC1VzJvACckY4L8aaz52-6" edge="1">
          <mxGeometry relative="1" as="geometry" />
        </mxCell>
        <mxCell id="GC1VzJvACckY4L8aaz52-92" value="" style="ellipse;whiteSpace=wrap;html=1;aspect=fixed;" parent="1" vertex="1">
          <mxGeometry x="820" y="289" width="10" height="10" as="geometry" />
        </mxCell>
        <mxCell id="GC1VzJvACckY4L8aaz52-93" value="ID" style="text;html=1;align=left;verticalAlign=middle;resizable=0;points=[];autosize=1;strokeColor=none;fillColor=none;fontSize=10;" parent="1" vertex="1">
          <mxGeometry x="835" y="279" width="30" height="30" as="geometry" />
        </mxCell>
        <mxCell id="GC1VzJvACckY4L8aaz52-94" value="ALUNO" style="text;html=1;align=left;verticalAlign=middle;resizable=0;points=[];autosize=1;strokeColor=none;fillColor=none;fontSize=10;" parent="1" vertex="1">
          <mxGeometry x="835" y="299" width="60" height="30" as="geometry" />
        </mxCell>
        <mxCell id="GC1VzJvACckY4L8aaz52-95" value="MATERIA" style="text;html=1;align=left;verticalAlign=middle;resizable=0;points=[];autosize=1;strokeColor=none;fillColor=none;fontSize=10;" parent="1" vertex="1">
          <mxGeometry x="835" y="319" width="70" height="30" as="geometry" />
        </mxCell>
        <mxCell id="GC1VzJvACckY4L8aaz52-96" value="AV01" style="text;html=1;align=left;verticalAlign=middle;resizable=0;points=[];autosize=1;strokeColor=none;fillColor=none;fontSize=10;" parent="1" vertex="1">
          <mxGeometry x="835" y="339" width="50" height="30" as="geometry" />
        </mxCell>
        <mxCell id="GC1VzJvACckY4L8aaz52-97" value="AV02" style="text;html=1;align=left;verticalAlign=middle;resizable=0;points=[];autosize=1;strokeColor=none;fillColor=none;fontSize=10;" parent="1" vertex="1">
          <mxGeometry x="835" y="359" width="50" height="30" as="geometry" />
        </mxCell>
        <mxCell id="GC1VzJvACckY4L8aaz52-98" value="média" style="text;html=1;align=left;verticalAlign=middle;resizable=0;points=[];autosize=1;strokeColor=none;fillColor=none;fontSize=10;" parent="1" vertex="1">
          <mxGeometry x="835" y="399" width="50" height="30" as="geometry" />
        </mxCell>
        <mxCell id="GC1VzJvACckY4L8aaz52-99" value="AV03" style="text;html=1;align=left;verticalAlign=middle;resizable=0;points=[];autosize=1;strokeColor=none;fillColor=none;fontSize=10;" parent="1" vertex="1">
          <mxGeometry x="835" y="379" width="50" height="30" as="geometry" />
        </mxCell>
        <mxCell id="GC1VzJvACckY4L8aaz52-109" style="edgeStyle=orthogonalEdgeStyle;rounded=0;orthogonalLoop=1;jettySize=auto;html=1;exitX=0;exitY=0.5;exitDx=0;exitDy=0;" parent="1" source="GC1VzJvACckY4L8aaz52-100" edge="1">
          <mxGeometry relative="1" as="geometry">
            <mxPoint x="800" y="279" as="targetPoint" />
          </mxGeometry>
        </mxCell>
        <mxCell id="GC1VzJvACckY4L8aaz52-100" value="" style="ellipse;whiteSpace=wrap;html=1;aspect=fixed;" parent="1" vertex="1">
          <mxGeometry x="820" y="309" width="10" height="10" as="geometry" />
        </mxCell>
        <mxCell id="GC1VzJvACckY4L8aaz52-110" style="edgeStyle=orthogonalEdgeStyle;rounded=0;orthogonalLoop=1;jettySize=auto;html=1;exitX=0;exitY=0.5;exitDx=0;exitDy=0;" parent="1" source="GC1VzJvACckY4L8aaz52-101" edge="1">
          <mxGeometry relative="1" as="geometry">
            <mxPoint x="800" y="279" as="targetPoint" />
          </mxGeometry>
        </mxCell>
        <mxCell id="GC1VzJvACckY4L8aaz52-101" value="" style="ellipse;whiteSpace=wrap;html=1;aspect=fixed;" parent="1" vertex="1">
          <mxGeometry x="820" y="329" width="10" height="10" as="geometry" />
        </mxCell>
        <mxCell id="GC1VzJvACckY4L8aaz52-111" style="edgeStyle=orthogonalEdgeStyle;rounded=0;orthogonalLoop=1;jettySize=auto;html=1;exitX=0;exitY=0.5;exitDx=0;exitDy=0;" parent="1" source="GC1VzJvACckY4L8aaz52-102" edge="1">
          <mxGeometry relative="1" as="geometry">
            <mxPoint x="800" y="279" as="targetPoint" />
          </mxGeometry>
        </mxCell>
        <mxCell id="GC1VzJvACckY4L8aaz52-102" value="" style="ellipse;whiteSpace=wrap;html=1;aspect=fixed;" parent="1" vertex="1">
          <mxGeometry x="820" y="349" width="10" height="10" as="geometry" />
        </mxCell>
        <mxCell id="GC1VzJvACckY4L8aaz52-112" style="edgeStyle=orthogonalEdgeStyle;rounded=0;orthogonalLoop=1;jettySize=auto;html=1;exitX=0;exitY=0.5;exitDx=0;exitDy=0;" parent="1" source="GC1VzJvACckY4L8aaz52-103" edge="1">
          <mxGeometry relative="1" as="geometry">
            <mxPoint x="800" y="279" as="targetPoint" />
          </mxGeometry>
        </mxCell>
        <mxCell id="GC1VzJvACckY4L8aaz52-103" value="" style="ellipse;whiteSpace=wrap;html=1;aspect=fixed;" parent="1" vertex="1">
          <mxGeometry x="820" y="369" width="10" height="10" as="geometry" />
        </mxCell>
        <mxCell id="GC1VzJvACckY4L8aaz52-113" style="edgeStyle=orthogonalEdgeStyle;rounded=0;orthogonalLoop=1;jettySize=auto;html=1;exitX=0;exitY=0.5;exitDx=0;exitDy=0;" parent="1" source="GC1VzJvACckY4L8aaz52-104" edge="1">
          <mxGeometry relative="1" as="geometry">
            <mxPoint x="800" y="279" as="targetPoint" />
          </mxGeometry>
        </mxCell>
        <mxCell id="GC1VzJvACckY4L8aaz52-104" value="" style="ellipse;whiteSpace=wrap;html=1;aspect=fixed;" parent="1" vertex="1">
          <mxGeometry x="820" y="389" width="10" height="10" as="geometry" />
        </mxCell>
        <mxCell id="GC1VzJvACckY4L8aaz52-114" style="edgeStyle=orthogonalEdgeStyle;rounded=0;orthogonalLoop=1;jettySize=auto;html=1;exitX=0;exitY=0.5;exitDx=0;exitDy=0;" parent="1" source="GC1VzJvACckY4L8aaz52-105" edge="1">
          <mxGeometry relative="1" as="geometry">
            <mxPoint x="800" y="279" as="targetPoint" />
          </mxGeometry>
        </mxCell>
        <mxCell id="GC1VzJvACckY4L8aaz52-105" value="" style="ellipse;whiteSpace=wrap;html=1;aspect=fixed;" parent="1" vertex="1">
          <mxGeometry x="820" y="409" width="10" height="10" as="geometry" />
        </mxCell>
        <mxCell id="GC1VzJvACckY4L8aaz52-106" value="status aluno" style="text;html=1;align=left;verticalAlign=middle;resizable=0;points=[];autosize=1;strokeColor=none;fillColor=none;fontSize=10;" parent="1" vertex="1">
          <mxGeometry x="835" y="419" width="80" height="30" as="geometry" />
        </mxCell>
        <mxCell id="GC1VzJvACckY4L8aaz52-115" style="edgeStyle=orthogonalEdgeStyle;rounded=0;orthogonalLoop=1;jettySize=auto;html=1;exitX=0;exitY=0.5;exitDx=0;exitDy=0;" parent="1" source="GC1VzJvACckY4L8aaz52-107" edge="1">
          <mxGeometry relative="1" as="geometry">
            <mxPoint x="800" y="279" as="targetPoint" />
          </mxGeometry>
        </mxCell>
        <mxCell id="GC1VzJvACckY4L8aaz52-107" value="" style="ellipse;whiteSpace=wrap;html=1;aspect=fixed;" parent="1" vertex="1">
          <mxGeometry x="820" y="429" width="10" height="10" as="geometry" />
        </mxCell>
        <mxCell id="GC1VzJvACckY4L8aaz52-132" style="edgeStyle=orthogonalEdgeStyle;rounded=0;orthogonalLoop=1;jettySize=auto;html=1;exitX=0;exitY=0.5;exitDx=0;exitDy=0;entryX=0;entryY=1;entryDx=0;entryDy=0;" parent="1" source="GC1VzJvACckY4L8aaz52-116" target="GC1VzJvACckY4L8aaz52-2" edge="1">
          <mxGeometry relative="1" as="geometry" />
        </mxCell>
        <mxCell id="GC1VzJvACckY4L8aaz52-116" value="" style="ellipse;whiteSpace=wrap;html=1;aspect=fixed;" parent="1" vertex="1">
          <mxGeometry x="820" y="679" width="10" height="10" as="geometry" />
        </mxCell>
        <mxCell id="GC1VzJvACckY4L8aaz52-117" value="ID" style="text;html=1;align=left;verticalAlign=middle;resizable=0;points=[];autosize=1;strokeColor=none;fillColor=none;fontSize=10;" parent="1" vertex="1">
          <mxGeometry x="835" y="669" width="30" height="30" as="geometry" />
        </mxCell>
        <mxCell id="GC1VzJvACckY4L8aaz52-118" value="nome" style="text;html=1;align=left;verticalAlign=middle;resizable=0;points=[];autosize=1;strokeColor=none;fillColor=none;fontSize=10;" parent="1" vertex="1">
          <mxGeometry x="835" y="689" width="50" height="30" as="geometry" />
        </mxCell>
        <mxCell id="GC1VzJvACckY4L8aaz52-119" value="CPF" style="text;html=1;align=left;verticalAlign=middle;resizable=0;points=[];autosize=1;strokeColor=none;fillColor=none;fontSize=10;" parent="1" vertex="1">
          <mxGeometry x="835" y="709" width="40" height="30" as="geometry" />
        </mxCell>
        <mxCell id="GC1VzJvACckY4L8aaz52-120" value="salario" style="text;html=1;align=left;verticalAlign=middle;resizable=0;points=[];autosize=1;strokeColor=none;fillColor=none;fontSize=10;" parent="1" vertex="1">
          <mxGeometry x="835" y="729" width="50" height="30" as="geometry" />
        </mxCell>
        <mxCell id="GC1VzJvACckY4L8aaz52-122" value="USUARIO" style="text;html=1;align=left;verticalAlign=middle;resizable=0;points=[];autosize=1;strokeColor=none;fillColor=none;fontSize=10;" parent="1" vertex="1">
          <mxGeometry x="835" y="769" width="70" height="30" as="geometry" />
        </mxCell>
        <mxCell id="GC1VzJvACckY4L8aaz52-123" value="nascimento" style="text;html=1;align=left;verticalAlign=middle;resizable=0;points=[];autosize=1;strokeColor=none;fillColor=none;fontSize=10;" parent="1" vertex="1">
          <mxGeometry x="835" y="789" width="70" height="30" as="geometry" />
        </mxCell>
        <mxCell id="GC1VzJvACckY4L8aaz52-124" value="data entrada" style="text;html=1;align=left;verticalAlign=middle;resizable=0;points=[];autosize=1;strokeColor=none;fillColor=none;fontSize=10;" parent="1" vertex="1">
          <mxGeometry x="835" y="749" width="80" height="30" as="geometry" />
        </mxCell>
        <mxCell id="GC1VzJvACckY4L8aaz52-133" style="edgeStyle=orthogonalEdgeStyle;rounded=0;orthogonalLoop=1;jettySize=auto;html=1;exitX=0;exitY=0.5;exitDx=0;exitDy=0;" parent="1" source="GC1VzJvACckY4L8aaz52-125" edge="1">
          <mxGeometry relative="1" as="geometry">
            <mxPoint x="799.9999999999999" y="669" as="targetPoint" />
          </mxGeometry>
        </mxCell>
        <mxCell id="GC1VzJvACckY4L8aaz52-125" value="" style="ellipse;whiteSpace=wrap;html=1;aspect=fixed;" parent="1" vertex="1">
          <mxGeometry x="820" y="699" width="10" height="10" as="geometry" />
        </mxCell>
        <mxCell id="GC1VzJvACckY4L8aaz52-134" style="edgeStyle=orthogonalEdgeStyle;rounded=0;orthogonalLoop=1;jettySize=auto;html=1;exitX=0;exitY=0.5;exitDx=0;exitDy=0;" parent="1" source="GC1VzJvACckY4L8aaz52-126" edge="1">
          <mxGeometry relative="1" as="geometry">
            <mxPoint x="799.9999999999999" y="669" as="targetPoint" />
          </mxGeometry>
        </mxCell>
        <mxCell id="GC1VzJvACckY4L8aaz52-126" value="" style="ellipse;whiteSpace=wrap;html=1;aspect=fixed;" parent="1" vertex="1">
          <mxGeometry x="820" y="719" width="10" height="10" as="geometry" />
        </mxCell>
        <mxCell id="GC1VzJvACckY4L8aaz52-135" style="edgeStyle=orthogonalEdgeStyle;rounded=0;orthogonalLoop=1;jettySize=auto;html=1;exitX=0;exitY=0.5;exitDx=0;exitDy=0;" parent="1" source="GC1VzJvACckY4L8aaz52-127" edge="1">
          <mxGeometry relative="1" as="geometry">
            <mxPoint x="799.9999999999999" y="669" as="targetPoint" />
          </mxGeometry>
        </mxCell>
        <mxCell id="GC1VzJvACckY4L8aaz52-127" value="" style="ellipse;whiteSpace=wrap;html=1;aspect=fixed;" parent="1" vertex="1">
          <mxGeometry x="820" y="739" width="10" height="10" as="geometry" />
        </mxCell>
        <mxCell id="GC1VzJvACckY4L8aaz52-136" style="edgeStyle=orthogonalEdgeStyle;rounded=0;orthogonalLoop=1;jettySize=auto;html=1;exitX=0;exitY=0.5;exitDx=0;exitDy=0;" parent="1" source="GC1VzJvACckY4L8aaz52-128" edge="1">
          <mxGeometry relative="1" as="geometry">
            <mxPoint x="800" y="669" as="targetPoint" />
          </mxGeometry>
        </mxCell>
        <mxCell id="GC1VzJvACckY4L8aaz52-128" value="" style="ellipse;whiteSpace=wrap;html=1;aspect=fixed;" parent="1" vertex="1">
          <mxGeometry x="820" y="759" width="10" height="10" as="geometry" />
        </mxCell>
        <mxCell id="GC1VzJvACckY4L8aaz52-137" style="edgeStyle=orthogonalEdgeStyle;rounded=0;orthogonalLoop=1;jettySize=auto;html=1;exitX=0;exitY=0.5;exitDx=0;exitDy=0;" parent="1" source="GC1VzJvACckY4L8aaz52-129" edge="1">
          <mxGeometry relative="1" as="geometry">
            <mxPoint x="800" y="669" as="targetPoint" />
          </mxGeometry>
        </mxCell>
        <mxCell id="GC1VzJvACckY4L8aaz52-129" value="" style="ellipse;whiteSpace=wrap;html=1;aspect=fixed;" parent="1" vertex="1">
          <mxGeometry x="820" y="779" width="10" height="10" as="geometry" />
        </mxCell>
        <mxCell id="GC1VzJvACckY4L8aaz52-138" style="edgeStyle=orthogonalEdgeStyle;rounded=0;orthogonalLoop=1;jettySize=auto;html=1;exitX=0;exitY=0.5;exitDx=0;exitDy=0;" parent="1" source="GC1VzJvACckY4L8aaz52-130" edge="1">
          <mxGeometry relative="1" as="geometry">
            <mxPoint x="800" y="669" as="targetPoint" />
          </mxGeometry>
        </mxCell>
        <mxCell id="GC1VzJvACckY4L8aaz52-130" value="" style="ellipse;whiteSpace=wrap;html=1;aspect=fixed;" parent="1" vertex="1">
          <mxGeometry x="820" y="799" width="10" height="10" as="geometry" />
        </mxCell>
        <mxCell id="GC1VzJvACckY4L8aaz52-140" value="USUARIO" style="rounded=1;whiteSpace=wrap;html=1;strokeWidth=2;" parent="1" vertex="1">
          <mxGeometry x="1120" y="219" width="120" height="60" as="geometry" />
        </mxCell>
        <mxCell id="GC1VzJvACckY4L8aaz52-147" style="edgeStyle=orthogonalEdgeStyle;rounded=0;orthogonalLoop=1;jettySize=auto;html=1;exitX=0;exitY=0.5;exitDx=0;exitDy=0;entryX=0;entryY=1;entryDx=0;entryDy=0;" parent="1" source="GC1VzJvACckY4L8aaz52-141" target="GC1VzJvACckY4L8aaz52-140" edge="1">
          <mxGeometry relative="1" as="geometry" />
        </mxCell>
        <mxCell id="GC1VzJvACckY4L8aaz52-141" value="" style="ellipse;whiteSpace=wrap;html=1;aspect=fixed;" parent="1" vertex="1">
          <mxGeometry x="1140" y="289" width="10" height="10" as="geometry" />
        </mxCell>
        <mxCell id="GC1VzJvACckY4L8aaz52-142" value="ID" style="text;html=1;align=left;verticalAlign=middle;resizable=0;points=[];autosize=1;strokeColor=none;fillColor=none;fontSize=10;" parent="1" vertex="1">
          <mxGeometry x="1155" y="279" width="30" height="30" as="geometry" />
        </mxCell>
        <mxCell id="GC1VzJvACckY4L8aaz52-143" value="email" style="text;html=1;align=left;verticalAlign=middle;resizable=0;points=[];autosize=1;strokeColor=none;fillColor=none;fontSize=10;" parent="1" vertex="1">
          <mxGeometry x="1155" y="299" width="50" height="30" as="geometry" />
        </mxCell>
        <mxCell id="GC1VzJvACckY4L8aaz52-144" value="senha" style="text;html=1;align=left;verticalAlign=middle;resizable=0;points=[];autosize=1;strokeColor=none;fillColor=none;fontSize=10;" parent="1" vertex="1">
          <mxGeometry x="1155" y="319" width="50" height="30" as="geometry" />
        </mxCell>
        <mxCell id="GC1VzJvACckY4L8aaz52-148" style="edgeStyle=orthogonalEdgeStyle;rounded=0;orthogonalLoop=1;jettySize=auto;html=1;exitX=0;exitY=0.5;exitDx=0;exitDy=0;" parent="1" source="GC1VzJvACckY4L8aaz52-145" edge="1">
          <mxGeometry relative="1" as="geometry">
            <mxPoint x="1120" y="279" as="targetPoint" />
          </mxGeometry>
        </mxCell>
        <mxCell id="GC1VzJvACckY4L8aaz52-145" value="" style="ellipse;whiteSpace=wrap;html=1;aspect=fixed;" parent="1" vertex="1">
          <mxGeometry x="1140" y="309" width="10" height="10" as="geometry" />
        </mxCell>
        <mxCell id="GC1VzJvACckY4L8aaz52-149" style="edgeStyle=orthogonalEdgeStyle;rounded=0;orthogonalLoop=1;jettySize=auto;html=1;exitX=0;exitY=0.5;exitDx=0;exitDy=0;" parent="1" source="GC1VzJvACckY4L8aaz52-146" edge="1">
          <mxGeometry relative="1" as="geometry">
            <mxPoint x="1120" y="279" as="targetPoint" />
          </mxGeometry>
        </mxCell>
        <mxCell id="GC1VzJvACckY4L8aaz52-146" value="" style="ellipse;whiteSpace=wrap;html=1;aspect=fixed;" parent="1" vertex="1">
          <mxGeometry x="1140" y="329" width="10" height="10" as="geometry" />
        </mxCell>
        <mxCell id="M3Rmy12SJ6gLI9cSGrtA-3" style="edgeStyle=orthogonalEdgeStyle;rounded=0;orthogonalLoop=1;jettySize=auto;html=1;exitX=0;exitY=0.5;exitDx=0;exitDy=0;entryX=1;entryY=0.5;entryDx=0;entryDy=0;strokeWidth=2;strokeColor=#9933FF;" parent="1" source="GC1VzJvACckY4L8aaz52-152" target="GC1VzJvACckY4L8aaz52-4" edge="1">
          <mxGeometry relative="1" as="geometry">
            <Array as="points">
              <mxPoint x="1060" y="639" />
              <mxPoint x="1060" y="889" />
              <mxPoint x="680" y="889" />
              <mxPoint x="680" y="299" />
            </Array>
          </mxGeometry>
        </mxCell>
        <mxCell id="GC1VzJvACckY4L8aaz52-152" value="GRADE" style="rounded=1;whiteSpace=wrap;html=1;strokeWidth=2;strokeColor=#9933FF;" parent="1" vertex="1">
          <mxGeometry x="1120" y="609" width="120" height="60" as="geometry" />
        </mxCell>
        <mxCell id="GC1VzJvACckY4L8aaz52-161" style="edgeStyle=orthogonalEdgeStyle;rounded=0;orthogonalLoop=1;jettySize=auto;html=1;exitX=0;exitY=0.5;exitDx=0;exitDy=0;entryX=0;entryY=1;entryDx=0;entryDy=0;" parent="1" source="GC1VzJvACckY4L8aaz52-153" target="GC1VzJvACckY4L8aaz52-152" edge="1">
          <mxGeometry relative="1" as="geometry" />
        </mxCell>
        <mxCell id="GC1VzJvACckY4L8aaz52-153" value="" style="ellipse;whiteSpace=wrap;html=1;aspect=fixed;" parent="1" vertex="1">
          <mxGeometry x="1140" y="679" width="10" height="10" as="geometry" />
        </mxCell>
        <mxCell id="GC1VzJvACckY4L8aaz52-154" value="ID" style="text;html=1;align=left;verticalAlign=middle;resizable=0;points=[];autosize=1;strokeColor=none;fillColor=none;fontSize=10;" parent="1" vertex="1">
          <mxGeometry x="1155" y="669" width="30" height="30" as="geometry" />
        </mxCell>
        <mxCell id="GC1VzJvACckY4L8aaz52-155" value="MATERIA" style="text;html=1;align=left;verticalAlign=middle;resizable=0;points=[];autosize=1;strokeColor=none;fillColor=none;fontSize=10;" parent="1" vertex="1">
          <mxGeometry x="1155" y="689" width="70" height="30" as="geometry" />
        </mxCell>
        <mxCell id="GC1VzJvACckY4L8aaz52-162" style="edgeStyle=orthogonalEdgeStyle;rounded=0;orthogonalLoop=1;jettySize=auto;html=1;exitX=0;exitY=0.5;exitDx=0;exitDy=0;" parent="1" source="GC1VzJvACckY4L8aaz52-156" edge="1">
          <mxGeometry relative="1" as="geometry">
            <mxPoint x="1120" y="669" as="targetPoint" />
          </mxGeometry>
        </mxCell>
        <mxCell id="GC1VzJvACckY4L8aaz52-156" value="" style="ellipse;whiteSpace=wrap;html=1;aspect=fixed;" parent="1" vertex="1">
          <mxGeometry x="1140" y="699" width="10" height="10" as="geometry" />
        </mxCell>
        <mxCell id="GC1VzJvACckY4L8aaz52-157" value="periodo" style="text;html=1;align=left;verticalAlign=middle;resizable=0;points=[];autosize=1;strokeColor=none;fillColor=none;fontSize=10;" parent="1" vertex="1">
          <mxGeometry x="1155" y="709" width="60" height="30" as="geometry" />
        </mxCell>
        <mxCell id="GC1VzJvACckY4L8aaz52-158" value="dia da semana" style="text;html=1;align=left;verticalAlign=middle;resizable=0;points=[];autosize=1;strokeColor=none;fillColor=none;fontSize=10;" parent="1" vertex="1">
          <mxGeometry x="1155" y="729" width="90" height="30" as="geometry" />
        </mxCell>
        <mxCell id="GC1VzJvACckY4L8aaz52-163" style="edgeStyle=orthogonalEdgeStyle;rounded=0;orthogonalLoop=1;jettySize=auto;html=1;exitX=0;exitY=0.5;exitDx=0;exitDy=0;" parent="1" source="GC1VzJvACckY4L8aaz52-159" edge="1">
          <mxGeometry relative="1" as="geometry">
            <mxPoint x="1120" y="669" as="targetPoint" />
          </mxGeometry>
        </mxCell>
        <mxCell id="GC1VzJvACckY4L8aaz52-159" value="" style="ellipse;whiteSpace=wrap;html=1;aspect=fixed;" parent="1" vertex="1">
          <mxGeometry x="1140" y="719" width="10" height="10" as="geometry" />
        </mxCell>
        <mxCell id="GC1VzJvACckY4L8aaz52-164" style="edgeStyle=orthogonalEdgeStyle;rounded=0;orthogonalLoop=1;jettySize=auto;html=1;exitX=0;exitY=0.5;exitDx=0;exitDy=0;" parent="1" source="GC1VzJvACckY4L8aaz52-160" edge="1">
          <mxGeometry relative="1" as="geometry">
            <mxPoint x="1120" y="669" as="targetPoint" />
          </mxGeometry>
        </mxCell>
        <mxCell id="GC1VzJvACckY4L8aaz52-160" value="" style="ellipse;whiteSpace=wrap;html=1;aspect=fixed;" parent="1" vertex="1">
          <mxGeometry x="1140" y="739" width="10" height="10" as="geometry" />
        </mxCell>
        <mxCell id="M3Rmy12SJ6gLI9cSGrtA-1" style="edgeStyle=orthogonalEdgeStyle;rounded=0;orthogonalLoop=1;jettySize=auto;html=1;entryX=1;entryY=0.5;entryDx=0;entryDy=0;strokeWidth=2;strokeColor=#FFFF00;" parent="1" source="GC1VzJvACckY4L8aaz52-165" target="GC1VzJvACckY4L8aaz52-1" edge="1">
          <mxGeometry relative="1" as="geometry">
            <Array as="points">
              <mxPoint x="1350" y="639" />
              <mxPoint x="1350" y="989" />
              <mxPoint x="320" y="989" />
              <mxPoint x="320" y="249" />
            </Array>
          </mxGeometry>
        </mxCell>
        <mxCell id="M3Rmy12SJ6gLI9cSGrtA-2" style="edgeStyle=orthogonalEdgeStyle;rounded=0;orthogonalLoop=1;jettySize=auto;html=1;exitX=0;exitY=0.5;exitDx=0;exitDy=0;entryX=1;entryY=0.5;entryDx=0;entryDy=0;strokeWidth=2;strokeColor=#FFFF00;" parent="1" source="GC1VzJvACckY4L8aaz52-165" target="GC1VzJvACckY4L8aaz52-152" edge="1">
          <mxGeometry relative="1" as="geometry" />
        </mxCell>
        <mxCell id="GC1VzJvACckY4L8aaz52-165" value="AGENDA" style="rounded=1;whiteSpace=wrap;html=1;strokeWidth=2;strokeColor=#FFFF00;" parent="1" vertex="1">
          <mxGeometry x="1440" y="609" width="120" height="60" as="geometry" />
        </mxCell>
        <mxCell id="GC1VzJvACckY4L8aaz52-180" style="edgeStyle=orthogonalEdgeStyle;rounded=0;orthogonalLoop=1;jettySize=auto;html=1;exitX=0;exitY=0.5;exitDx=0;exitDy=0;entryX=0;entryY=1;entryDx=0;entryDy=0;" parent="1" source="GC1VzJvACckY4L8aaz52-166" target="GC1VzJvACckY4L8aaz52-165" edge="1">
          <mxGeometry relative="1" as="geometry" />
        </mxCell>
        <mxCell id="GC1VzJvACckY4L8aaz52-166" value="" style="ellipse;whiteSpace=wrap;html=1;aspect=fixed;" parent="1" vertex="1">
          <mxGeometry x="1460" y="679" width="10" height="10" as="geometry" />
        </mxCell>
        <mxCell id="GC1VzJvACckY4L8aaz52-167" value="ID" style="text;html=1;align=left;verticalAlign=middle;resizable=0;points=[];autosize=1;strokeColor=none;fillColor=none;fontSize=10;" parent="1" vertex="1">
          <mxGeometry x="1475" y="669" width="30" height="30" as="geometry" />
        </mxCell>
        <mxCell id="GC1VzJvACckY4L8aaz52-168" value="ALUNO" style="text;html=1;align=left;verticalAlign=middle;resizable=0;points=[];autosize=1;strokeColor=none;fillColor=none;fontSize=10;" parent="1" vertex="1">
          <mxGeometry x="1475" y="689" width="60" height="30" as="geometry" />
        </mxCell>
        <mxCell id="GC1VzJvACckY4L8aaz52-169" value="segunda (GRADE)" style="text;html=1;align=left;verticalAlign=middle;resizable=0;points=[];autosize=1;strokeColor=none;fillColor=none;fontSize=10;" parent="1" vertex="1">
          <mxGeometry x="1475" y="709" width="110" height="30" as="geometry" />
        </mxCell>
        <mxCell id="GC1VzJvACckY4L8aaz52-170" value="terça (GRADE)" style="text;html=1;align=left;verticalAlign=middle;resizable=0;points=[];autosize=1;strokeColor=none;fillColor=none;fontSize=10;" parent="1" vertex="1">
          <mxGeometry x="1475" y="729" width="90" height="30" as="geometry" />
        </mxCell>
        <mxCell id="GC1VzJvACckY4L8aaz52-171" value="quarta (GRADE)" style="text;html=1;align=left;verticalAlign=middle;resizable=0;points=[];autosize=1;strokeColor=none;fillColor=none;fontSize=10;" parent="1" vertex="1">
          <mxGeometry x="1475" y="749" width="100" height="30" as="geometry" />
        </mxCell>
        <mxCell id="GC1VzJvACckY4L8aaz52-172" value="quinta (GRADE)" style="text;html=1;align=left;verticalAlign=middle;resizable=0;points=[];autosize=1;strokeColor=none;fillColor=none;fontSize=10;" parent="1" vertex="1">
          <mxGeometry x="1475" y="769" width="100" height="30" as="geometry" />
        </mxCell>
        <mxCell id="GC1VzJvACckY4L8aaz52-173" value="sexta (GRADE)" style="text;html=1;align=left;verticalAlign=middle;resizable=0;points=[];autosize=1;strokeColor=none;fillColor=none;fontSize=10;" parent="1" vertex="1">
          <mxGeometry x="1475" y="789" width="90" height="30" as="geometry" />
        </mxCell>
        <mxCell id="GC1VzJvACckY4L8aaz52-181" style="edgeStyle=orthogonalEdgeStyle;rounded=0;orthogonalLoop=1;jettySize=auto;html=1;exitX=0;exitY=0.5;exitDx=0;exitDy=0;" parent="1" source="GC1VzJvACckY4L8aaz52-174" edge="1">
          <mxGeometry relative="1" as="geometry">
            <mxPoint x="1440" y="669" as="targetPoint" />
          </mxGeometry>
        </mxCell>
        <mxCell id="GC1VzJvACckY4L8aaz52-174" value="" style="ellipse;whiteSpace=wrap;html=1;aspect=fixed;" parent="1" vertex="1">
          <mxGeometry x="1460" y="699" width="10" height="10" as="geometry" />
        </mxCell>
        <mxCell id="GC1VzJvACckY4L8aaz52-182" style="edgeStyle=orthogonalEdgeStyle;rounded=0;orthogonalLoop=1;jettySize=auto;html=1;exitX=0;exitY=0.5;exitDx=0;exitDy=0;" parent="1" source="GC1VzJvACckY4L8aaz52-175" edge="1">
          <mxGeometry relative="1" as="geometry">
            <mxPoint x="1440" y="669" as="targetPoint" />
          </mxGeometry>
        </mxCell>
        <mxCell id="GC1VzJvACckY4L8aaz52-175" value="" style="ellipse;whiteSpace=wrap;html=1;aspect=fixed;" parent="1" vertex="1">
          <mxGeometry x="1460" y="719" width="10" height="10" as="geometry" />
        </mxCell>
        <mxCell id="GC1VzJvACckY4L8aaz52-183" style="edgeStyle=orthogonalEdgeStyle;rounded=0;orthogonalLoop=1;jettySize=auto;html=1;exitX=0;exitY=0.5;exitDx=0;exitDy=0;" parent="1" source="GC1VzJvACckY4L8aaz52-176" edge="1">
          <mxGeometry relative="1" as="geometry">
            <mxPoint x="1440" y="669" as="targetPoint" />
          </mxGeometry>
        </mxCell>
        <mxCell id="GC1VzJvACckY4L8aaz52-176" value="" style="ellipse;whiteSpace=wrap;html=1;aspect=fixed;" parent="1" vertex="1">
          <mxGeometry x="1460" y="739" width="10" height="10" as="geometry" />
        </mxCell>
        <mxCell id="GC1VzJvACckY4L8aaz52-184" style="edgeStyle=orthogonalEdgeStyle;rounded=0;orthogonalLoop=1;jettySize=auto;html=1;exitX=0;exitY=0.5;exitDx=0;exitDy=0;" parent="1" source="GC1VzJvACckY4L8aaz52-177" edge="1">
          <mxGeometry relative="1" as="geometry">
            <mxPoint x="1440" y="669" as="targetPoint" />
          </mxGeometry>
        </mxCell>
        <mxCell id="GC1VzJvACckY4L8aaz52-177" value="" style="ellipse;whiteSpace=wrap;html=1;aspect=fixed;" parent="1" vertex="1">
          <mxGeometry x="1460" y="759" width="10" height="10" as="geometry" />
        </mxCell>
        <mxCell id="GC1VzJvACckY4L8aaz52-185" style="edgeStyle=orthogonalEdgeStyle;rounded=0;orthogonalLoop=1;jettySize=auto;html=1;exitX=0;exitY=0.5;exitDx=0;exitDy=0;" parent="1" source="GC1VzJvACckY4L8aaz52-178" edge="1">
          <mxGeometry relative="1" as="geometry">
            <mxPoint x="1440" y="669" as="targetPoint" />
          </mxGeometry>
        </mxCell>
        <mxCell id="GC1VzJvACckY4L8aaz52-178" value="" style="ellipse;whiteSpace=wrap;html=1;aspect=fixed;" parent="1" vertex="1">
          <mxGeometry x="1460" y="779" width="10" height="10" as="geometry" />
        </mxCell>
        <mxCell id="GC1VzJvACckY4L8aaz52-186" style="edgeStyle=orthogonalEdgeStyle;rounded=0;orthogonalLoop=1;jettySize=auto;html=1;exitX=0;exitY=0.5;exitDx=0;exitDy=0;" parent="1" source="GC1VzJvACckY4L8aaz52-179" edge="1">
          <mxGeometry relative="1" as="geometry">
            <mxPoint x="1440" y="669" as="targetPoint" />
          </mxGeometry>
        </mxCell>
        <mxCell id="GC1VzJvACckY4L8aaz52-179" value="" style="ellipse;whiteSpace=wrap;html=1;aspect=fixed;" parent="1" vertex="1">
          <mxGeometry x="1460" y="799" width="10" height="10" as="geometry" />
        </mxCell>
        <mxCell id="M3Rmy12SJ6gLI9cSGrtA-15" value="" style="ellipse;whiteSpace=wrap;html=1;aspect=fixed;fillColor=#CCCCCC;" parent="1" vertex="1">
          <mxGeometry x="160" y="409" width="10" height="10" as="geometry" />
        </mxCell>
        <mxCell id="M3Rmy12SJ6gLI9cSGrtA-16" value="" style="ellipse;whiteSpace=wrap;html=1;aspect=fixed;fillColor=#CCCCCC;" parent="1" vertex="1">
          <mxGeometry x="160" y="449" width="10" height="10" as="geometry" />
        </mxCell>
        <mxCell id="M3Rmy12SJ6gLI9cSGrtA-18" value="" style="ellipse;whiteSpace=wrap;html=1;aspect=fixed;fillColor=#CCCCCC;" parent="1" vertex="1">
          <mxGeometry x="500" y="379" width="10" height="10" as="geometry" />
        </mxCell>
        <mxCell id="M3Rmy12SJ6gLI9cSGrtA-19" value="" style="ellipse;whiteSpace=wrap;html=1;aspect=fixed;fillColor=#CCCCCC;" parent="1" vertex="1">
          <mxGeometry x="500" y="439" width="10" height="10" as="geometry" />
        </mxCell>
        <mxCell id="LdwCz14F8RA0HdBUvNru-1" value="nascimento" style="text;html=1;align=left;verticalAlign=middle;resizable=0;points=[];autosize=1;strokeColor=none;fillColor=none;fontSize=10;" parent="1" vertex="1">
          <mxGeometry x="175" y="459" width="70" height="30" as="geometry" />
        </mxCell>
        <mxCell id="LdwCz14F8RA0HdBUvNru-4" style="edgeStyle=orthogonalEdgeStyle;rounded=0;orthogonalLoop=1;jettySize=auto;html=1;exitX=0;exitY=0.5;exitDx=0;exitDy=0;" parent="1" source="LdwCz14F8RA0HdBUvNru-2" edge="1">
          <mxGeometry relative="1" as="geometry">
            <mxPoint x="139.9999999999999" y="280" as="targetPoint" />
          </mxGeometry>
        </mxCell>
        <mxCell id="LdwCz14F8RA0HdBUvNru-2" value="" style="ellipse;whiteSpace=wrap;html=1;aspect=fixed;" parent="1" vertex="1">
          <mxGeometry x="160" y="469" width="10" height="10" as="geometry" />
        </mxCell>
        <mxCell id="LdwCz14F8RA0HdBUvNru-5" value="telefone" style="text;html=1;align=left;verticalAlign=middle;resizable=0;points=[];autosize=1;strokeColor=none;fillColor=none;fontSize=10;" parent="1" vertex="1">
          <mxGeometry x="175" y="479" width="60" height="30" as="geometry" />
        </mxCell>
        <mxCell id="LdwCz14F8RA0HdBUvNru-7" style="edgeStyle=orthogonalEdgeStyle;rounded=0;orthogonalLoop=1;jettySize=auto;html=1;exitX=0;exitY=0.5;exitDx=0;exitDy=0;" parent="1" source="LdwCz14F8RA0HdBUvNru-6" edge="1">
          <mxGeometry relative="1" as="geometry">
            <mxPoint x="139.9999999999999" y="280" as="targetPoint" />
          </mxGeometry>
        </mxCell>
        <mxCell id="LdwCz14F8RA0HdBUvNru-6" value="" style="ellipse;whiteSpace=wrap;html=1;aspect=fixed;" parent="1" vertex="1">
          <mxGeometry x="160" y="489" width="10" height="10" as="geometry" />
        </mxCell>
      </root>
    </mxGraphModel>
  </diagram>
</mxfile>
